<?xml version="1.0" encoding="utf-8"?>
<!-- Generator: Adobe Illustrator 22.0.1, SVG Export Plug-In . SVG Version: 6.00 Build 0)  -->
<svg version="1.1" id="Calque_1" xmlns="http://www.w3.org/2000/svg" xmlns:xlink="http://www.w3.org/1999/xlink" x="0px" y="0px"
	 viewBox="0 0 633 247" style="enable-background:new 0 0 633 247;" xml:space="preserve">
<style type="text/css">
	.st0{fill:#2E2E2E;}
	.st1{fill:#FFFFFF;stroke:#777777;stroke-miterlimit:10;}
	.st2{fill:none;}
	.st3{enable-background:new    ;}
	.st4{fill:#FFFFFF;}
	.st5{fill:none;stroke:#777777;stroke-miterlimit:10;}
</style>
<g id="Calque_1_1_">
	<g id="Calque_2_1_">
		<rect x="-66.6" y="-65" class="st0" width="732.1" height="402"/>
	</g>
	<g>
		<path class="st1" d="M54.7,122.2c0,1.2-0.1,2.5-0.1,3.7c0,33.5,8.8,60.3,26.5,80.5c4,4.6,8.2,8.7,12.6,12.2
			c-6.6,3.1-14.1,4.7-22.5,4.7c-12.8,0-22.8-3.3-30-10c-7.2-6.6-11.4-15.9-12.6-27.8c-0.6-7.2-3.2-10.8-8-10.8
			c-4.3,0-6.4,1.8-6.4,5.4c0,0.9,0.2,2.7,0.5,5.5s0.5,5.2,0.5,7.1c0,5.7-0.1,10.4-0.4,14.1c-0.3,3.8-0.4,6.3-0.4,7.7
			c0,5.6,6.4,10.9,19.1,15.9s25.2,7.5,37.3,7.5c13.5,0,26.1-3.2,37.9-9.6c11,5.5,22.9,8.3,35.7,8.3c9.7,0,19.7-2.2,30.2-6.5
			C185,225.8,199,216,201,214l1.1-1.1c0.2-0.2,0.4-0.6,0.5-0.9c1.9-7.2,3.6-22.3,3.6-25.4v-12c0-4.3,1-7.6,2.9-10s2.9-4.7,2.9-6.8
			s-0.5-3.5-1.6-4.2c-1.1-0.6-3-1-5.7-1h-44.2c-4.6,0-6.8,2.1-6.8,6.4c0,2.4,0.8,4.3,2.5,5.8s4,2.2,7,2.2c1.1,0,3-0.1,5.6-0.3
			s4.6-0.3,5.8-0.3c7.2,0,10.8,2.4,10.8,7.1v19.7c0,9.4-4.3,16.6-12.8,21.5s-17.7,7.4-27.7,7.4c-7.7,0-14.8-1.4-21.4-4.1
			c10.5-9.8,15.8-22.7,15.8-38.6c0-13.1-4.4-25.4-13.2-36.9c-6.2-8.1-16.6-18.1-31.6-29.8 M107.7,206.7c-3.5-3.2-6.7-6.9-9.7-11.1
			C87.6,181,81.6,161.2,80.2,136c13.9,10.6,22.9,18.8,27,24.5c5.7,7.9,8.5,15.4,8.5,22.4C115.8,192.3,113.1,200.2,107.7,206.7z"/>
		<path class="st1" d="M95.2,113.2c-4.2-3.3-9.2-7.1-14-10.6C83.5,85,88.6,70,96.7,57.9c3.7-5.6,7.9-10.3,12.5-14.1
			c3.4,4.6,5.2,10.4,5.2,17.3c0,1.8,0.8,3.4,2.3,4.9c1.5,1.5,3.1,2.3,4.7,2.3c4.4,0,6.7-3.2,6.7-9.7c-0.4-2.8-0.6-4.7-0.6-5.7
			c0-3.7,0-6.5,0.1-8.4s0.1-3.3,0.1-4.2c0-1.9-0.5-3.8-1.6-5.6c4.8-1.4,9.9-2.2,15.3-2.2c14.7,0,26.2,4.3,34.5,13
			c4.7,5,9.2,13,13.6,24.2c2.3,6,4,9.6,5.2,10.9s2.4,2,3.8,2c1.3,0,2.3-0.7,3-2.1s1.1-3.1,1.1-5.1c0-2.1-0.2-4.3-0.6-6.7
			c-0.4-2.4-0.6-4.2-0.6-5.3V51.8c0-8.6-6.6-16.4-19.8-23.4s-27.6-10.5-43-10.5c-10,0-19.4,1.9-28.2,5.6
			c-10.2-4.3-19.9-6.4-28.9-6.4c-16.5,0-31.1,4.6-43.7,13.8s-19,20.8-19,34.7c0,8.6,1.9,16.3,5.8,23s8.6,12.6,14.4,17.5
			c4.1,3.6,9.4,7.7,15.8,12.4c-0.1,1.2-0.1,3.5-0.1,4.7 M65.4,70.4c-2.2,5-4,10.2-5.5,15.5c-6.3-5.1-10.5-9.2-12.6-12.4
			c-3.4-5-5-10-5-14.8c0-7,3.8-13.5,11.4-19.3c7.6-5.9,16.7-8.8,27.3-8.8c4.6,0,8.8,0.6,12.7,1.9C81.7,41.7,72.2,54.4,65.4,70.4z"/>
	</g>
	<rect x="175" y="69" class="st2" width="434" height="97"/>
	<g class="st3">
		<path class="st4" d="M183.1,124.7c0-2.6,0.3-5.2,1-7.8c0.6-2.6,1.7-5.2,3.1-7.7c1.4-2.5,3.1-4.8,5-6.7c1.9-2,4.3-3.5,7.2-4.7
			c2.9-1.2,6-1.8,9.3-1.8c2.5,0,4.6,0.4,6.4,1.1c1.8,0.7,3.2,1.6,4.3,2.7c1,1.1,1.9,2.4,2.5,4s1,3.1,1.2,4.5c0.2,1.4,0.3,3,0.3,4.6
			c0,6-1.5,11.6-4.6,16.7s-6.9,8.9-11.5,11.2c-2.6,1.3-5.8,1.9-9.6,1.9c-2.5,0-4.7-0.5-6.6-1.4c-1.9-0.9-3.3-2-4.3-3.3
			c-1-1.3-1.8-2.8-2.4-4.6c-0.6-1.8-1-3.3-1.1-4.6C183.2,127.5,183.1,126.1,183.1,124.7z M191.8,123.9c0,4.9,0.8,8.7,2.4,11.1
			s3.3,3.7,5.1,3.7c2.1,0,4.1-0.5,6-1.6c1.9-1,3.6-2.6,5-4.8c1.7-2.6,2.8-5.6,3.5-9.2s1-6.8,1-9.8c0-4.3-0.5-7.4-1.6-9.5
			c-0.8-1.6-1.7-2.7-2.6-3.5c-1-0.7-2.2-1.1-3.7-1.1c-2.6,0-4.9,0.8-7,2.5c-2,1.6-3.6,3.8-4.7,6.3c-1.1,2.6-2,5.2-2.5,7.9
			C192,118.8,191.8,121.4,191.8,123.9z"/>
		<path class="st4" d="M225.6,124.7c0-2.6,0.3-5.2,1-7.8c0.6-2.6,1.7-5.2,3.1-7.7c1.4-2.5,3.1-4.8,5-6.7c1.9-2,4.3-3.5,7.2-4.7
			c2.9-1.2,6-1.8,9.3-1.8c2.5,0,4.6,0.4,6.4,1.1c1.8,0.7,3.2,1.6,4.3,2.7c1,1.1,1.9,2.4,2.5,4s1,3.1,1.2,4.5c0.2,1.4,0.3,3,0.3,4.6
			c0,6-1.5,11.6-4.6,16.7s-6.9,8.9-11.5,11.2c-2.6,1.3-5.8,1.9-9.6,1.9c-2.5,0-4.7-0.5-6.6-1.4c-1.9-0.9-3.3-2-4.3-3.3
			c-1-1.3-1.8-2.8-2.4-4.6c-0.6-1.8-1-3.3-1.1-4.6C225.7,127.5,225.6,126.1,225.6,124.7z M234.3,123.9c0,4.9,0.8,8.7,2.4,11.1
			s3.3,3.7,5.1,3.7c2.1,0,4.1-0.5,6-1.6c1.9-1,3.6-2.6,5-4.8c1.7-2.6,2.8-5.6,3.5-9.2s1-6.8,1-9.8c0-4.3-0.5-7.4-1.6-9.5
			c-0.8-1.6-1.7-2.7-2.6-3.5c-1-0.7-2.2-1.1-3.7-1.1c-2.6,0-4.9,0.8-7,2.5c-2,1.6-3.6,3.8-4.7,6.3c-1.1,2.6-2,5.2-2.5,7.9
			C234.5,118.8,234.3,121.4,234.3,123.9z"/>
		<path class="st4" d="M295.9,129.5l-0.4-0.2c-3.2,4.6-6.1,8-8.7,10.1c-2.6,2.1-5.2,3.2-7.8,3.2c-2.2,0-4-0.5-5.5-1.5
			c-1.5-1-2.6-2.3-3.3-3.9c-0.7-1.6-1.2-3.2-1.4-4.7c-0.3-1.5-0.4-3.1-0.4-4.8c0-3.9,0.8-7.9,2.4-11.8c1.6-3.9,3.6-7.4,6.1-10.2
			c2.5-2.9,5.2-5.2,8.2-7c3-1.8,5.9-2.7,8.7-2.7c1.9,0,3.6,0.5,5,1.6c1.4,1.1,2.5,2.5,3.2,4.1h0.1L306,83c0.5-2.5,0.8-4.3,0.8-5.2
			c0-1.1-0.2-1.9-0.5-2.3c-0.4-0.4-0.9-0.7-1.7-0.7h-3.3c-0.3,0-0.5-0.2-0.5-0.6l0.3-2.6c2.1,0,4.7-0.3,7.8-0.9
			c3.1-0.6,5.3-1.2,6.7-1.7c0.8,0,1.2,0.4,1.2,1.1L314.3,81l-11,48.1c-0.7,3.5-1.1,5.4-1.1,5.8c0,0.5,0.1,0.9,0.4,1.1
			c0.3,0.2,0.6,0.3,0.8,0.3c1.2,0,3.2-1.8,5.8-5.5c0.4,0,0.8,0.1,1.1,0.3c0.3,0.2,0.5,0.4,0.6,0.5l0.6,0.9
			c-3,6.7-7.5,10.1-13.3,10.1c-1.6,0-2.7-0.5-3.3-1.4c-0.6-0.9-0.9-2-0.9-3.3c0-1,0.3-2.9,1-5.7L295.9,129.5z M295.9,121.4
			c3.2-5.9,4.8-10.1,4.8-12.7c0-2-0.6-4-1.9-6c-1.3-2-2.8-3-4.6-3c-2.3,0-4.5,0.9-6.7,2.6c-2.2,1.7-4,3.9-5.6,6.4s-2.8,5.4-3.7,8.5
			c-0.9,3.1-1.4,6-1.4,8.8c0,7.9,1.4,11.8,4.1,11.8c2,0,4.3-1.5,7-4.5C290.6,130.3,293.3,126.3,295.9,121.4z"/>
		<path class="st4" d="M325.8,108.2c0.6-2.9,0.9-4.7,0.9-5.3c0-1.3-0.6-2-1.9-2.1l-4.2-0.3c-0.7-1.2-0.8-2.1-0.1-2.9l3.5-0.5
			l3.7-0.5c0.8-0.1,1.8-0.2,2.9-0.3s2.1-0.2,2.8-0.2c1.4,0,2.1,0.7,2.1,2.2c0,0.4-0.1,1-0.2,1.8c-0.2,0.8-0.3,1.5-0.5,2.2l-0.8,2.9
			c-0.3,1.3-0.6,2.2-0.8,2.9l-0.3,1l0.2,0.1c6.9-8.9,13.7-13.4,20.4-13.4c1.7,0,3.2,0.7,4.3,2c1.1,1.4,1.7,3.7,1.7,7
			c0,1.8-0.1,3.4-0.4,4.9c1.8-2.2,3.3-4,4.6-5.5c1.3-1.4,2.8-2.9,4.4-4.3c1.6-1.4,3.3-2.5,5-3.1c1.7-0.7,3.4-1,5.2-1
			c1.8,0,3.3,0.7,4.5,2.2c1.2,1.5,1.8,3.8,1.8,6.8c0,2.3-0.4,4.8-1.1,7.6l-4.9,18.5c-0.3,1.3-0.5,2.7-0.5,4.2c0,0.8,0.2,1.2,0.7,1.2
			c0.9,0,2-0.6,3.4-1.9c1.4-1.3,2.7-2.9,3.9-4.9c1.3,0,2.1,0.5,2.3,1.5c-3.2,7.7-8.3,11.5-15.4,11.5c-0.8,0-1.6-0.3-2.3-1
			c-0.7-0.7-1-1.5-1-2.5c0-1.4,0.6-4.5,1.8-9.4l4.1-16.4c0.6-2.4,0.9-4.9,0.9-7.4c0-1.5-0.2-2.5-0.7-3c-0.5-0.5-1.2-0.8-2.3-0.8
			c-1.8,0-3.9,1.1-6.3,3.4c-2.4,2.2-5.7,6.3-10,12.2l-4,16.4c-0.1,0.5-0.3,1.3-0.5,2.3c-0.2,1-0.4,1.9-0.5,2.4s-0.4,1.2-0.7,1.8
			c-0.3,0.7-0.7,1.1-1.2,1.4c-0.5,0.3-1.2,0.5-1.9,0.5c-1.6,0-2.7-0.2-3.3-0.7c-0.6-0.5-0.9-1.2-0.9-2.1c0-0.3,0.1-0.8,0.2-1.3
			c0.1-0.6,0.3-1.4,0.6-2.3l0.5-2l5-21.1c0.6-2.6,0.9-4.9,0.9-7c0-1.5-0.2-2.5-0.6-3.1c-0.4-0.5-1.1-0.8-2.2-0.8
			c-1.2,0-2.6,0.4-4.1,1.3c-1.5,0.8-3.5,2.5-5.8,4.8c-2.3,2.4-4.8,5.4-7.3,9.1l-4.2,16.8c-0.1,0.5-0.3,1.3-0.5,2.4
			c-0.2,1-0.4,1.8-0.5,2.4s-0.4,1.2-0.7,1.8c-0.3,0.7-0.7,1.1-1.2,1.4c-0.5,0.3-1.2,0.5-1.9,0.5c-1.6,0-2.7-0.2-3.3-0.7
			c-0.6-0.5-0.9-1.2-0.9-2.1c0-0.3,0.1-0.8,0.2-1.3c0.1-0.6,0.3-1.4,0.6-2.3l0.5-2L325.8,108.2z"/>
		<path class="st4" d="M427,96.5c0.6,0.2,1.3,0.3,2.1,0.3s1.7,0,2.9,0s1.9,0,2.3,0l-7.2,32.3c-0.7,3.4-1.1,5.4-1.1,5.8
			c0,0.5,0.1,0.9,0.4,1.1s0.6,0.3,0.8,0.3c1.2,0,3.2-1.8,5.8-5.5c0.4,0,0.8,0.1,1.1,0.3c0.3,0.2,0.5,0.4,0.6,0.5l0.6,0.9
			c-3,6.7-7.5,10.1-13.4,10.1c-2.8,0-4.2-1.6-4.2-4.7c0-1.5,0.3-3.4,1-5.7l1.4-4.4l-0.2-0.2c-6.7,10-12.6,14.9-17.6,14.9
			c-6.7,0-10.1-4.7-10.1-14c0-3.9,0.8-7.9,2.5-12c1.7-4,3.8-7.6,6.4-10.5c2.6-3,5.4-5.4,8.5-7.3c3.1-1.9,6-2.8,8.8-2.8
			C420.5,95.9,423.3,96.1,427,96.5z M421.8,118.8c0.8-2,1.5-4.4,2.1-7.4s1-5.4,1.2-7.4l0.4-2.9c-2.1-1.3-4.2-2-6.4-2
			c-2.3,0-4.5,0.9-6.8,2.8c-2.3,1.9-4.2,4.2-5.9,7c-1.6,2.8-2.9,5.8-4,9s-1.5,6.2-1.5,9c0,6.7,1.5,10,4.6,10c1.7,0,4.2-1.9,7.6-5.6
			S419.2,123.5,421.8,118.8z"/>
		<path class="st4" d="M476,128.7c-0.8,3.5-1.2,5.4-1.2,5.9c0,1.2,0.4,1.8,1.1,1.8c0.6,0,1.5-0.5,2.8-1.5c1.3-1,2.6-2.2,3.9-3.7
			c1.2,0,2,0.6,2.4,1.8c-5,6.4-9.9,9.6-14.8,9.6c-2.8,0-4.3-1.1-4.3-3.4c0-1.4,0.6-4.6,1.8-9.6l4-16.6c0.9-3.9,1.3-6.2,1.3-7.1
			c0-1.5-0.3-2.5-0.9-3c-0.6-0.5-1.5-0.8-2.7-0.8c-3.2,0-8.5,4.9-16,14.7l-4,17.3c-0.1,0.5-0.2,1.1-0.4,2c-0.2,0.8-0.3,1.5-0.4,2
			c-0.1,0.5-0.3,1.1-0.5,1.7c-0.2,0.6-0.5,1.1-0.7,1.5c-0.3,0.4-0.6,0.7-1.1,0.9c-0.5,0.3-1,0.4-1.7,0.4c-3,0-4.5-0.9-4.5-2.8
			c0-0.3,0.1-0.8,0.2-1.3c0.1-0.6,0.3-1.4,0.6-2.3l0.5-2l5.9-25.9c0.6-2.9,0.9-4.7,0.9-5.3c0-1.3-0.6-2-1.9-2.1l-4.2-0.3
			c-0.7-1.2-0.8-2.1-0.1-2.9c7.3-0.9,11.7-1.4,13.1-1.4s2.1,0.7,2.1,2.2c0,0.4-0.1,1-0.2,1.8c-0.2,0.8-0.3,1.5-0.5,2.2l-0.8,2.9
			c-0.3,1.3-0.6,2.2-0.8,2.9l-0.3,1l0.1,0.1c4.5-5.3,8.2-8.9,11-10.7c2.8-1.8,5.6-2.7,8.5-2.7c4.6,0,6.9,2.8,6.9,8.3
			c0,1.3-0.4,3.9-1.3,7.9L476,128.7z"/>
	</g>
	<g class="st3">
		<path class="st5" d="M183.1,124.7c0-2.6,0.3-5.2,1-7.8c0.6-2.6,1.7-5.2,3.1-7.7c1.4-2.5,3.1-4.8,5-6.7c1.9-2,4.3-3.5,7.2-4.7
			c2.9-1.2,6-1.8,9.3-1.8c2.5,0,4.6,0.4,6.4,1.1c1.8,0.7,3.2,1.6,4.3,2.7c1,1.1,1.9,2.4,2.5,4s1,3.1,1.2,4.5c0.2,1.4,0.3,3,0.3,4.6
			c0,6-1.5,11.6-4.6,16.7s-6.9,8.9-11.5,11.2c-2.6,1.3-5.8,1.9-9.6,1.9c-2.5,0-4.7-0.5-6.6-1.4c-1.9-0.9-3.3-2-4.3-3.3
			c-1-1.3-1.8-2.8-2.4-4.6c-0.6-1.8-1-3.3-1.1-4.6C183.2,127.5,183.1,126.1,183.1,124.7z M191.8,123.9c0,4.9,0.8,8.7,2.4,11.1
			s3.3,3.7,5.1,3.7c2.1,0,4.1-0.5,6-1.6c1.9-1,3.6-2.6,5-4.8c1.7-2.6,2.8-5.6,3.5-9.2s1-6.8,1-9.8c0-4.3-0.5-7.4-1.6-9.5
			c-0.8-1.6-1.7-2.7-2.6-3.5c-1-0.7-2.2-1.1-3.7-1.1c-2.6,0-4.9,0.8-7,2.5c-2,1.6-3.6,3.8-4.7,6.3c-1.1,2.6-2,5.2-2.5,7.9
			C192,118.8,191.8,121.4,191.8,123.9z"/>
		<path class="st5" d="M225.6,124.7c0-2.6,0.3-5.2,1-7.8c0.6-2.6,1.7-5.2,3.1-7.7c1.4-2.5,3.1-4.8,5-6.7c1.9-2,4.3-3.5,7.2-4.7
			c2.9-1.2,6-1.8,9.3-1.8c2.5,0,4.6,0.4,6.4,1.1c1.8,0.7,3.2,1.6,4.3,2.7c1,1.1,1.9,2.4,2.5,4s1,3.1,1.2,4.5c0.2,1.4,0.3,3,0.3,4.6
			c0,6-1.5,11.6-4.6,16.7s-6.9,8.9-11.5,11.2c-2.6,1.3-5.8,1.9-9.6,1.9c-2.5,0-4.7-0.5-6.6-1.4c-1.9-0.9-3.3-2-4.3-3.3
			c-1-1.3-1.8-2.8-2.4-4.6c-0.6-1.8-1-3.3-1.1-4.6C225.7,127.5,225.6,126.1,225.6,124.7z M234.3,123.9c0,4.9,0.8,8.7,2.4,11.1
			s3.3,3.7,5.1,3.7c2.1,0,4.1-0.5,6-1.6c1.9-1,3.6-2.6,5-4.8c1.7-2.6,2.8-5.6,3.5-9.2s1-6.8,1-9.8c0-4.3-0.5-7.4-1.6-9.5
			c-0.8-1.6-1.7-2.7-2.6-3.5c-1-0.7-2.2-1.1-3.7-1.1c-2.6,0-4.9,0.8-7,2.5c-2,1.6-3.6,3.8-4.7,6.3c-1.1,2.6-2,5.2-2.5,7.9
			C234.5,118.8,234.3,121.4,234.3,123.9z"/>
		<path class="st5" d="M295.9,129.5l-0.4-0.2c-3.2,4.6-6.1,8-8.7,10.1c-2.6,2.1-5.2,3.2-7.8,3.2c-2.2,0-4-0.5-5.5-1.5
			c-1.5-1-2.6-2.3-3.3-3.9c-0.7-1.6-1.2-3.2-1.4-4.7c-0.3-1.5-0.4-3.1-0.4-4.8c0-3.9,0.8-7.9,2.4-11.8c1.6-3.9,3.6-7.4,6.1-10.2
			c2.5-2.9,5.2-5.2,8.2-7c3-1.8,5.9-2.7,8.7-2.7c1.9,0,3.6,0.5,5,1.6c1.4,1.1,2.5,2.5,3.2,4.1h0.1L306,83c0.5-2.5,0.8-4.3,0.8-5.2
			c0-1.1-0.2-1.9-0.5-2.3c-0.4-0.4-0.9-0.7-1.7-0.7h-3.3c-0.3,0-0.5-0.2-0.5-0.6l0.3-2.6c2.1,0,4.7-0.3,7.8-0.9
			c3.1-0.6,5.3-1.2,6.7-1.7c0.8,0,1.2,0.4,1.2,1.1L314.3,81l-11,48.1c-0.7,3.5-1.1,5.4-1.1,5.8c0,0.5,0.1,0.9,0.4,1.1
			c0.3,0.2,0.6,0.3,0.8,0.3c1.2,0,3.2-1.8,5.8-5.5c0.4,0,0.8,0.1,1.1,0.3c0.3,0.2,0.5,0.4,0.6,0.5l0.6,0.9
			c-3,6.7-7.5,10.1-13.3,10.1c-1.6,0-2.7-0.5-3.3-1.4c-0.6-0.9-0.9-2-0.9-3.3c0-1,0.3-2.9,1-5.7L295.9,129.5z M295.9,121.4
			c3.2-5.9,4.8-10.1,4.8-12.7c0-2-0.6-4-1.9-6c-1.3-2-2.8-3-4.6-3c-2.3,0-4.5,0.9-6.7,2.6c-2.2,1.7-4,3.9-5.6,6.4s-2.8,5.4-3.7,8.5
			c-0.9,3.1-1.4,6-1.4,8.8c0,7.9,1.4,11.8,4.1,11.8c2,0,4.3-1.5,7-4.5C290.6,130.3,293.3,126.3,295.9,121.4z"/>
		<path class="st5" d="M325.8,108.2c0.6-2.9,0.9-4.7,0.9-5.3c0-1.3-0.6-2-1.9-2.1l-4.2-0.3c-0.7-1.2-0.8-2.1-0.1-2.9l3.5-0.5
			l3.7-0.5c0.8-0.1,1.8-0.2,2.9-0.3s2.1-0.2,2.8-0.2c1.4,0,2.1,0.7,2.1,2.2c0,0.4-0.1,1-0.2,1.8c-0.2,0.8-0.3,1.5-0.5,2.2l-0.8,2.9
			c-0.3,1.3-0.6,2.2-0.8,2.9l-0.3,1l0.2,0.1c6.9-8.9,13.7-13.4,20.4-13.4c1.7,0,3.2,0.7,4.3,2c1.1,1.4,1.7,3.7,1.7,7
			c0,1.8-0.1,3.4-0.4,4.9c1.8-2.2,3.3-4,4.6-5.5c1.3-1.4,2.8-2.9,4.4-4.3c1.6-1.4,3.3-2.5,5-3.1c1.7-0.7,3.4-1,5.2-1
			c1.8,0,3.3,0.7,4.5,2.2c1.2,1.5,1.8,3.8,1.8,6.8c0,2.3-0.4,4.8-1.1,7.6l-4.9,18.5c-0.3,1.3-0.5,2.7-0.5,4.2c0,0.8,0.2,1.2,0.7,1.2
			c0.9,0,2-0.6,3.4-1.9c1.4-1.3,2.7-2.9,3.9-4.9c1.3,0,2.1,0.5,2.3,1.5c-3.2,7.7-8.3,11.5-15.4,11.5c-0.8,0-1.6-0.3-2.3-1
			c-0.7-0.7-1-1.5-1-2.5c0-1.4,0.6-4.5,1.8-9.4l4.1-16.4c0.6-2.4,0.9-4.9,0.9-7.4c0-1.5-0.2-2.5-0.7-3c-0.5-0.5-1.2-0.8-2.3-0.8
			c-1.8,0-3.9,1.1-6.3,3.4c-2.4,2.2-5.7,6.3-10,12.2l-4,16.4c-0.1,0.5-0.3,1.3-0.5,2.3c-0.2,1-0.4,1.9-0.5,2.4s-0.4,1.2-0.7,1.8
			c-0.3,0.7-0.7,1.1-1.2,1.4c-0.5,0.3-1.2,0.5-1.9,0.5c-1.6,0-2.7-0.2-3.3-0.7c-0.6-0.5-0.9-1.2-0.9-2.1c0-0.3,0.1-0.8,0.2-1.3
			c0.1-0.6,0.3-1.4,0.6-2.3l0.5-2l5-21.1c0.6-2.6,0.9-4.9,0.9-7c0-1.5-0.2-2.5-0.6-3.1c-0.4-0.5-1.1-0.8-2.2-0.8
			c-1.2,0-2.6,0.4-4.1,1.3c-1.5,0.8-3.5,2.5-5.8,4.8c-2.3,2.4-4.8,5.4-7.3,9.1l-4.2,16.8c-0.1,0.5-0.3,1.3-0.5,2.4
			c-0.2,1-0.4,1.8-0.5,2.4s-0.4,1.2-0.7,1.8c-0.3,0.7-0.7,1.1-1.2,1.4c-0.5,0.3-1.2,0.5-1.9,0.5c-1.6,0-2.7-0.2-3.3-0.7
			c-0.6-0.5-0.9-1.2-0.9-2.1c0-0.3,0.1-0.8,0.2-1.3c0.1-0.6,0.3-1.4,0.6-2.3l0.5-2L325.8,108.2z"/>
		<path class="st5" d="M427,96.5c0.6,0.2,1.3,0.3,2.1,0.3s1.7,0,2.9,0s1.9,0,2.3,0l-7.2,32.3c-0.7,3.4-1.1,5.4-1.1,5.8
			c0,0.5,0.1,0.9,0.4,1.1s0.6,0.3,0.8,0.3c1.2,0,3.2-1.8,5.8-5.5c0.4,0,0.8,0.1,1.1,0.3c0.3,0.2,0.5,0.4,0.6,0.5l0.6,0.9
			c-3,6.7-7.5,10.1-13.4,10.1c-2.8,0-4.2-1.6-4.2-4.7c0-1.5,0.3-3.4,1-5.7l1.4-4.4l-0.2-0.2c-6.7,10-12.6,14.9-17.6,14.9
			c-6.7,0-10.1-4.7-10.1-14c0-3.9,0.8-7.9,2.5-12c1.7-4,3.8-7.6,6.4-10.5c2.6-3,5.4-5.4,8.5-7.3c3.1-1.9,6-2.8,8.8-2.8
			C420.5,95.9,423.3,96.1,427,96.5z M421.8,118.8c0.8-2,1.5-4.4,2.1-7.4s1-5.4,1.2-7.4l0.4-2.9c-2.1-1.3-4.2-2-6.4-2
			c-2.3,0-4.5,0.9-6.8,2.8c-2.3,1.9-4.2,4.2-5.9,7c-1.6,2.8-2.9,5.8-4,9s-1.5,6.2-1.5,9c0,6.7,1.5,10,4.6,10c1.7,0,4.2-1.9,7.6-5.6
			S419.2,123.5,421.8,118.8z"/>
		<path class="st5" d="M476,128.7c-0.8,3.5-1.2,5.4-1.2,5.9c0,1.2,0.4,1.8,1.1,1.8c0.6,0,1.5-0.5,2.8-1.5c1.3-1,2.6-2.2,3.9-3.7
			c1.2,0,2,0.6,2.4,1.8c-5,6.4-9.9,9.6-14.8,9.6c-2.8,0-4.3-1.1-4.3-3.4c0-1.4,0.6-4.6,1.8-9.6l4-16.6c0.9-3.9,1.3-6.2,1.3-7.1
			c0-1.5-0.3-2.5-0.9-3c-0.6-0.5-1.5-0.8-2.7-0.8c-3.2,0-8.5,4.9-16,14.7l-4,17.3c-0.1,0.5-0.2,1.1-0.4,2c-0.2,0.8-0.3,1.5-0.4,2
			c-0.1,0.5-0.3,1.1-0.5,1.7c-0.2,0.6-0.5,1.1-0.7,1.5c-0.3,0.4-0.6,0.7-1.1,0.9c-0.5,0.3-1,0.4-1.7,0.4c-3,0-4.5-0.9-4.5-2.8
			c0-0.3,0.1-0.8,0.2-1.3c0.1-0.6,0.3-1.4,0.6-2.3l0.5-2l5.9-25.9c0.6-2.9,0.9-4.7,0.9-5.3c0-1.3-0.6-2-1.9-2.1l-4.2-0.3
			c-0.7-1.2-0.8-2.1-0.1-2.9c7.3-0.9,11.7-1.4,13.1-1.4s2.1,0.7,2.1,2.2c0,0.4-0.1,1-0.2,1.8c-0.2,0.8-0.3,1.5-0.5,2.2l-0.8,2.9
			c-0.3,1.3-0.6,2.2-0.8,2.9l-0.3,1l0.1,0.1c4.5-5.3,8.2-8.9,11-10.7c2.8-1.8,5.6-2.7,8.5-2.7c4.6,0,6.9,2.8,6.9,8.3
			c0,1.3-0.4,3.9-1.3,7.9L476,128.7z"/>
	</g>
	<g class="st3">
		<path class="st4" d="M235.5,175.2l2.2,0.5c-0.5,1.8-1.3,3.2-2.5,4.1c-1.2,0.9-2.6,1.4-4.4,1.4c-1.8,0-3.2-0.4-4.3-1.1
			c-1.1-0.7-2-1.8-2.5-3.1c-0.6-1.4-0.9-2.8-0.9-4.4c0-1.7,0.3-3.2,1-4.5c0.7-1.3,1.6-2.2,2.8-2.9c1.2-0.7,2.5-1,4-1
			c1.6,0,3,0.4,4.2,1.3c1.1,0.8,1.9,2,2.3,3.5l-2.1,0.5c-0.4-1.2-0.9-2.1-1.7-2.6s-1.6-0.8-2.7-0.8c-1.3,0-2.3,0.3-3.2,0.9
			c-0.8,0.6-1.4,1.4-1.8,2.4c-0.3,1-0.5,2.1-0.5,3.2c0,1.4,0.2,2.6,0.6,3.7c0.4,1,1,1.8,1.9,2.3s1.8,0.8,2.8,0.8
			c1.2,0,2.3-0.4,3.1-1.1C234.6,177.7,235.2,176.6,235.5,175.2z"/>
		<path class="st4" d="M245.6,181l6.3-16.5h2.3L261,181h-2.5l-1.9-5h-6.9l-1.8,5H245.6z M250.3,174.2h5.6l-1.7-4.6
			c-0.5-1.4-0.9-2.5-1.2-3.4c-0.2,1.1-0.5,2.1-0.9,3.1L250.3,174.2z"/>
		<path class="st4" d="M269.6,181v-16.5h6.2c1.3,0,2.3,0.2,3,0.5c0.8,0.3,1.4,0.8,1.8,1.5c0.4,0.7,0.6,1.4,0.6,2.2
			c0,0.7-0.2,1.4-0.6,2s-1,1.1-1.7,1.5c1,0.3,1.8,0.8,2.3,1.5c0.5,0.7,0.8,1.5,0.8,2.5c0,0.8-0.2,1.5-0.5,2.2
			c-0.3,0.7-0.7,1.2-1.2,1.5s-1.1,0.6-1.8,0.8c-0.7,0.2-1.6,0.3-2.7,0.3H269.6z M271.8,171.5h3.6c1,0,1.7-0.1,2.1-0.2
			c0.6-0.2,1-0.4,1.3-0.8c0.3-0.4,0.4-0.9,0.4-1.4c0-0.5-0.1-1-0.4-1.4c-0.3-0.4-0.6-0.7-1.1-0.9s-1.3-0.2-2.5-0.2h-3.3V171.5z
			 M271.8,179.1h4.1c0.7,0,1.2,0,1.5-0.1c0.5-0.1,0.9-0.2,1.3-0.4s0.6-0.5,0.8-0.9s0.3-0.9,0.3-1.4c0-0.6-0.2-1.1-0.5-1.6
			s-0.8-0.8-1.3-1c-0.6-0.2-1.4-0.3-2.4-0.3h-3.8V179.1z"/>
		<path class="st4" d="M292.4,181v-16.5h2.2V181H292.4z"/>
		<path class="st4" d="M305.4,181v-16.5h2.2l8.6,12.9v-12.9h2.1V181h-2.2l-8.6-12.9V181H305.4z"/>
		<path class="st4" d="M329.1,181v-16.5H341v1.9h-9.7v5h9.1v1.9h-9.1v5.6h10.1v1.9H329.1z"/>
		<path class="st4" d="M355.5,181v-14.5h-5.4v-1.9h13.1v1.9h-5.4V181H355.5z"/>
		<path class="st4" d="M385.4,181v-16.5h5.7c1.3,0,2.3,0.1,2.9,0.2c0.9,0.2,1.7,0.6,2.4,1.2c0.9,0.7,1.5,1.7,1.9,2.8
			c0.4,1.1,0.6,2.4,0.6,3.9c0,1.3-0.1,2.4-0.4,3.3c-0.3,1-0.7,1.8-1.1,2.4s-1,1.1-1.5,1.5s-1.2,0.6-2,0.8c-0.8,0.2-1.7,0.3-2.6,0.3
			H385.4z M387.5,179.1h3.5c1.1,0,1.9-0.1,2.6-0.3s1.1-0.5,1.5-0.9c0.5-0.5,0.9-1.2,1.2-2.1c0.3-0.9,0.4-1.9,0.4-3.2
			c0-1.7-0.3-3-0.8-4c-0.6-0.9-1.3-1.5-2.1-1.9c-0.6-0.2-1.5-0.3-2.8-0.3h-3.5V179.1z"/>
		<path class="st4" d="M408.6,166.7v-2.3h2.2v1.9c0,1-0.1,1.7-0.3,2.2c-0.3,0.6-0.8,1.1-1.5,1.4l-0.5-0.8c0.4-0.2,0.7-0.4,0.9-0.8
			s0.3-0.8,0.3-1.5H408.6z"/>
		<path class="st4" d="M419.3,181l6.3-16.5h2.3l6.7,16.5h-2.5l-1.9-5h-6.9l-1.8,5H419.3z M424,174.2h5.6l-1.7-4.6
			c-0.5-1.4-0.9-2.5-1.2-3.4c-0.2,1.1-0.5,2.1-0.9,3.1L424,174.2z"/>
		<path class="st4" d="M446.4,181l-6.4-16.5h2.4l4.3,12c0.3,1,0.6,1.9,0.9,2.7c0.3-0.9,0.5-1.8,0.9-2.7l4.4-12h2.2l-6.4,16.5H446.4z
			"/>
		<path class="st4" d="M463.4,173c0-2.7,0.7-4.9,2.2-6.4s3.4-2.3,5.7-2.3c1.5,0,2.9,0.4,4.1,1.1c1.2,0.7,2.2,1.7,2.8,3
			c0.6,1.3,1,2.8,1,4.4c0,1.7-0.3,3.2-1,4.5s-1.6,2.3-2.9,3c-1.2,0.7-2.6,1-4,1c-1.5,0-2.9-0.4-4.2-1.1c-1.2-0.7-2.1-1.8-2.8-3.1
			S463.4,174.4,463.4,173z M465.6,173c0,2,0.5,3.5,1.6,4.7s2.4,1.7,4,1.7c1.6,0,3-0.6,4-1.7c1.1-1.2,1.6-2.8,1.6-4.9
			c0-1.3-0.2-2.5-0.7-3.5c-0.5-1-1.1-1.8-2-2.3c-0.9-0.6-1.9-0.8-2.9-0.8c-1.5,0-2.9,0.5-4,1.6C466.2,168.8,465.6,170.5,465.6,173z"
			/>
		<path class="st4" d="M500.7,175.2l2.2,0.5c-0.5,1.8-1.3,3.2-2.5,4.1s-2.6,1.4-4.4,1.4c-1.8,0-3.2-0.4-4.3-1.1
			c-1.1-0.7-2-1.8-2.5-3.1c-0.6-1.4-0.9-2.8-0.9-4.4c0-1.7,0.3-3.2,1-4.5s1.6-2.2,2.8-2.9c1.2-0.7,2.5-1,4-1c1.6,0,3,0.4,4.2,1.3
			c1.1,0.8,1.9,2,2.3,3.5l-2.1,0.5c-0.4-1.2-0.9-2.1-1.7-2.6s-1.6-0.8-2.7-0.8c-1.3,0-2.3,0.3-3.2,0.9s-1.4,1.4-1.8,2.4
			c-0.3,1-0.5,2.1-0.5,3.2c0,1.4,0.2,2.6,0.6,3.7c0.4,1,1,1.8,1.9,2.3s1.8,0.8,2.8,0.8c1.2,0,2.3-0.4,3.1-1.1
			C499.8,177.7,500.4,176.6,500.7,175.2z"/>
		<path class="st4" d="M510.7,181l6.3-16.5h2.3l6.7,16.5h-2.5l-1.9-5h-6.9l-1.8,5H510.7z M515.5,174.2h5.6l-1.7-4.6
			c-0.5-1.4-0.9-2.5-1.2-3.4c-0.2,1.1-0.5,2.1-0.9,3.1L515.5,174.2z"/>
		<path class="st4" d="M537.3,181v-14.5h-5.4v-1.9h13v1.9h-5.4V181H537.3z"/>
		<path class="st4" d="M553.4,175.7l2.1-0.2c0.1,0.8,0.3,1.5,0.7,2c0.4,0.5,0.9,1,1.7,1.3c0.7,0.3,1.6,0.5,2.5,0.5
			c0.8,0,1.6-0.1,2.2-0.4c0.6-0.2,1.1-0.6,1.4-1s0.5-0.9,0.5-1.4c0-0.5-0.2-1-0.4-1.4c-0.3-0.4-0.8-0.7-1.5-1
			c-0.4-0.2-1.4-0.4-2.9-0.8s-2.6-0.7-3.2-1c-0.8-0.4-1.4-0.9-1.8-1.5c-0.4-0.6-0.6-1.3-0.6-2c0-0.8,0.2-1.6,0.7-2.3
			s1.2-1.3,2.1-1.6c0.9-0.4,1.9-0.6,3-0.6c1.2,0,2.3,0.2,3.2,0.6c0.9,0.4,1.6,1,2.2,1.7s0.8,1.6,0.8,2.6l-2.1,0.2
			c-0.1-1-0.5-1.8-1.1-2.4c-0.6-0.5-1.6-0.8-2.9-0.8c-1.3,0-2.3,0.2-2.9,0.7c-0.6,0.5-0.9,1.1-0.9,1.7c0,0.6,0.2,1.1,0.6,1.5
			c0.4,0.4,1.5,0.8,3.3,1.2c1.8,0.4,3,0.8,3.6,1c1,0.4,1.7,1,2.1,1.7c0.5,0.7,0.7,1.5,0.7,2.3c0,0.9-0.3,1.7-0.8,2.5
			c-0.5,0.8-1.2,1.4-2.2,1.8s-2,0.6-3.2,0.6c-1.5,0-2.7-0.2-3.7-0.7c-1-0.4-1.8-1.1-2.4-2C553.8,177.8,553.5,176.8,553.4,175.7z"/>
	</g>
</g>
<g id="Calque_3">
</g>
</svg>
