<?xml version="1.0" encoding="utf-8"?>
<!-- Generator: Adobe Illustrator 22.0.1, SVG Export Plug-In . SVG Version: 6.00 Build 0)  -->
<svg version="1.1" xmlns="http://www.w3.org/2000/svg" xmlns:xlink="http://www.w3.org/1999/xlink" x="0px" y="0px"
	 viewBox="0 0 649.5 247" style="enable-background:new 0 0 649.5 247;" xml:space="preserve">
<style type="text/css">
	.st0{fill:#2E2E2E;}
	.st1{fill:#FFFFFF;stroke:#808080;stroke-miterlimit:10;}
	.st2{fill:none;}
	.st3{fill:#FFFFFF;}
	.st4{font-family:'LinuxLibertineGI';}
	.st5{font-size:104px;}
	.st6{letter-spacing:-4;}
	.st7{fill:none;stroke:#808080;stroke-miterlimit:10;}
	.st8{font-family:'MyriadPro-Regular';}
	.st9{font-size:20px;}
	.st10{letter-spacing:5;}
</style>
<g id="Calque_3">
	<rect x="-40.9" y="-40.4" class="st0" width="787.5" height="351"/>
</g>
<g id="Calque_1">
	<g>
		<path class="st1" d="M56.6,121.2c0,1.2,0,2.5,0,3.7c0,33.5,8.8,60.3,26.5,80.5c4,4.6,8.2,8.7,12.6,12.2
			c-6.6,3.1-14.1,4.7-22.5,4.7c-12.8,0-22.8-3.3-30-10c-7.2-6.6-11.4-15.9-12.6-27.8c-0.6-7.2-3.2-10.8-8-10.8
			c-4.3,0-6.4,1.8-6.4,5.4c0,0.9,0.2,2.7,0.5,5.5s0.5,5.2,0.5,7.1c0,5.7-0.1,10.4-0.4,14.1c-0.3,3.8-0.4,6.3-0.4,7.7
			c0,5.6,6.4,10.9,19.1,15.9s25.2,7.5,37.3,7.5c13.5,0,26.1-3.2,37.9-9.6c11,5.5,22.9,8.3,35.7,8.3c9.7,0,19.7-2.2,30.2-6.5
			C187,224.8,201,215,203,213l1.1-1.1c0.2-0.2,0.4-0.6,0.5-0.9c1.9-7.2,3.6-22.3,3.6-25.4v-12c0-4.3,1-7.6,2.9-10s2.9-4.7,2.9-6.8
			s-0.5-3.5-1.6-4.2c-1.1-0.6-3-1-5.7-1h-44.2c-4.6,0-6.8,2.1-6.8,6.4c0,2.4,0.8,4.3,2.5,5.8s4,2.2,7,2.2c1.1,0,3-0.1,5.6-0.3
			s4.6-0.3,5.8-0.3c7.2,0,10.8,2.4,10.8,7.1v19.7c0,9.4-4.3,16.6-12.8,21.5s-17.7,7.4-27.7,7.4c-7.7,0-14.8-1.4-21.4-4.1
			c10.5-9.8,15.8-22.7,15.8-38.6c0-13.1-4.4-25.4-13.2-36.9c-6.2-8.1-16.7-18-31.7-29.7 M109.7,206.7c-3.5-3.2-6.7-6.9-9.7-11.1
			C89.6,181,83.6,161.2,82.2,136c13.9,10.6,22.9,18.8,27,24.5c5.7,7.9,8.5,15.4,8.5,22.4C117.8,192.3,115.1,200.2,109.7,206.7z"/>
		<path class="st1" d="M96.5,111.7c-4.1-3.2-8.6-6.6-13.3-10.1C85.5,84,90.6,69,98.7,56.9c3.7-5.6,7.9-10.3,12.5-14.1
			c3.4,4.6,5.2,10.4,5.2,17.3c0,1.8,0.8,3.4,2.3,4.9c1.5,1.5,3.1,2.3,4.7,2.3c4.4,0,6.7-3.2,6.7-9.7c-0.4-2.8-0.6-4.7-0.6-5.7
			c0-3.7,0-6.5,0.1-8.4s0.1-3.3,0.1-4.2c0-1.9-0.5-3.8-1.6-5.6c4.8-1.4,9.9-2.2,15.3-2.2c14.7,0,26.2,4.3,34.5,13
			c4.7,5,9.2,13,13.6,24.2c2.3,6,4,9.6,5.2,10.9s2.4,2,3.8,2c1.3,0,2.3-0.7,3-2.1s1.1-3.1,1.1-5.1c0-2.1-0.2-4.3-0.6-6.7
			c-0.4-2.4-0.6-4.2-0.6-5.3V50.8c0-8.6-6.6-16.4-19.8-23.4s-27.6-10.5-43-10.5c-10,0-19.4,1.9-28.2,5.6
			c-10.2-4.3-19.9-6.4-28.9-6.4c-16.5,0-31.1,4.6-43.7,13.8s-19,20.8-19,34.7c0,8.6,1.9,16.3,5.8,23s8.6,12.6,14.4,17.5
			c4.1,3.6,9.4,7.7,15.8,12.4c-0.1,1.2-0.1,2.5-0.1,3.7 M67.4,70.4c-2.2,5-4,10.2-5.5,15.5c-6.3-5.1-10.5-9.2-12.6-12.4
			c-3.4-5-5-10-5-14.8c0-7,3.8-13.5,11.4-19.3c7.6-5.9,16.7-8.8,27.3-8.8c4.6,0,8.8,0.6,12.7,1.9C83.7,41.7,74.2,54.4,67.4,70.4z"/>
	</g>
	<rect x="177" y="69" class="st2" width="434" height="97"/>
	<text transform="matrix(1 0 0 1 177 141.5918)" class="st3 st4 st5 st6">oodman</text>
	<text transform="matrix(1 0 0 1 177 141.5918)" class="st7 st4 st5 st6">oodman</text>
	<path class="st3" d="M92,126l-26,5c-1.1,0.7-7.3,2.1-8,1l-0.5-9.4c-0.7-1.1-0.3-2.5,0.7-3.2L82.8,104c1.1-0.7,2.5-0.3,3.2,0.7
		L99,115C99.7,116.1,93.1,125.3,92,126z"/>
</g>
<g id="Calque_2">
	<rect x="235.6" y="162.3" class="st2" width="279.1" height="24.1"/>
	<text transform="matrix(1 0 0 1 235.5879 176.5109)" class="st3 st8 st9 st10">CABINET D’AVOCATS</text>
</g>
</svg>
